<svg id="Layer_1" data-name="Layer 1" xmlns="http://www.w3.org/2000/svg" viewBox="0 0 608 608"><defs><style>.cls-1{fill:#825f0d;}</style></defs><path class="cls-1" d="M259.74,495.55l67.6-384h65.71l-67.6,384Zm33.53-116.82,8.92-61.12h30.29q84.63,0,128.18-23.8t43.54-70.3q0-27.58-22.58-41.78t-66.39-14.2q-59,0-96.81,5.41l8.92-61.39q35.7-5.4,91.4-5.4,75.72,0,114.66,28.79T572.34,220q0,78.15-63,118.44t-185.77,40.3ZM463.36,495.55l-53-170.37h69.5l56.78,170.37Z"/><path class="cls-1" d="M255.13,364.38c-19.77-11-80.35-46.95-163.59-116.7,3,3,95.07,97.28,158.1,124.88a112.1,112.1,0,0,1-116.49,50,58.81,58.81,0,0,0,3.06-5.62c1-1.94,1.78-3.88,2.54-5.89-10.59,3.1-14.82,3.45-20.86.76,2.54-2.09,5.34-5.76,7.66-9.23a110.8,110.8,0,0,1-31.29-4.46,137.35,137.35,0,0,1,9.2-10.82c-10.76,2.13-18-.19-23.81-3.38,4.36-1.67,7.14-4.27,10-7.88-9.19-2.46-15.92-4.59-24.09-9.28,4.36-1.65,5.72-4.66,6.91-10.67-11-.44-13.93-2.8-18.81-7.29a35,35,0,0,0,9.68-5.42c-6.77-4.21-9.42-9.55-15-15,3.89-1.85,4.39-1.68,7.43-6.2-10.55-3.17-11.34-7.88-15-13.44,2.21-.85,5.47.47,9.58-1.27a111.52,111.52,0,0,1-11.84-17.65A70,70,0,0,0,51,286.71c-9.16-6.18-12.13-9.21-13.92-15.55,3.82.72,9.56.33,14.2-.21a69.42,69.42,0,0,1-8.38-15.62c-.39-1-.75-1.94-1.07-2.92,2.82,1,5.67,1.87,8.55,2.61,1.8.44,3.58.9,5.38,1.24a111.44,111.44,0,0,1-6.86-35.87,4,4,0,0,1,0-.68,3.4,3.4,0,0,1,.64-.2,111.26,111.26,0,0,1,36.23-4.92c-.94-1.6-1.92-3.16-2.92-4.72-1.61-2.47-3.36-4.91-5.2-7.27,1,0,2.06,0,3.11.09a67.48,67.48,0,0,1,17.47,3c-1-4.58-2.42-10.15-4.32-13.54,6.6-.33,10.42,1.52,19.19,8.24A69.86,69.86,0,0,0,112,187.58a112.4,112.4,0,0,1,20.5,5.59c.34-4.45-2-7.12-1.86-9.48,6.41,1.66,11.14.89,17.52,9.88,3.31-4.32,3-4.74,3.5-9,7,3.56,12.89,4.37,19,9.43a34.75,34.75,0,0,0,2.08-10.9c5.8,3.18,9,5.21,12.88,15.51,5.34-3,7.75-5.28,7.94-10,7,6.23,11.19,11.92,16.47,19.85,2.5-3.85,4.07-7.31,4.27-12,4.87,4.47,9.39,10.6,10.81,21.5a138.9,138.9,0,0,1,7.3-12.2,112.48,112.48,0,0,1,14.22,28.25c2.52-3.31,5.12-7.11,6.32-10.22,4.45,4.88,5.46,9,5.91,20a68.24,68.24,0,0,0,9.12-9,112.05,112.05,0,0,1-12.86,129.45Z"/></svg>